<?xml version="1.0" encoding="utf-8"?>
<!-- Generator: Adobe Illustrator 19.0.0, SVG Export Plug-In . SVG Version: 6.00 Build 0)  -->
<svg version="1.1" id="Calque_1" xmlns="http://www.w3.org/2000/svg" xmlns:xlink="http://www.w3.org/1999/xlink" x="0px" y="0px"
	 viewBox="0 0 691.4 197.1" style="enable-background:new 0 0 691.4 197.1;" xml:space="preserve">
<style type="text/css">
	.st0{fill:#FFFFFF;}
	.st1{fill:#EB6578;}
	.st2{fill:#58B897;}
	.st3{fill:#84C7B0;}
	.st4{fill:#FBD051;}
	.st5{fill:#3F4A64;}
	.st6{fill:#F19196;}
	.st7{fill:#010000;}
</style>
<polygon id="XMLID_38_" class="st0" points="317.9,151.2 290.8,178.3 245.9,133.3 245.9,175.7 207.6,175.7 207.6,52.1 245.9,52.1 
	245.9,93 290.8,48.1 317.9,75.2 280,113.1 "/>
<g id="XMLID_2_">
	<path id="XMLID_77_" class="st0" d="M382,84.5h-22.6v35.3H382c2.6,0,5.1-0.6,7.2-1.9c0.3-0.2,1.6-1,3-2.4c3.9-4,4.8-9,5-10.3
		c0,0,0.9-5.9-1.8-11.7c-0.5-1.1-1.4-2.9-3.3-4.8C389.6,85.9,386,84.5,382,84.5 M359.8,158h-0.4v17.7h-38.3v-124l60.8,0.4
		c14.6,0,27.1,5.2,37.6,15.5c10.3,10.3,15.5,22.7,15.5,37.5c0,7.2-1.4,13.9-4.2,20.4c-2.7,6.3-6.5,11.7-11.2,16.6l15.3,8.1
		l-19.2,33.1C414.6,183.3,359.8,158,359.8,158"/>
</g>
<path id="XMLID_73_" class="st1" d="M521.2,134l-14.3-24.9L492.7,134H521.2z M541.2,175.7l-6.5-10.7H479l-6.1,10.7h-44.4l78.5-136.1
	l78.5,136.1H541.2z"/>
<polygon id="XMLID_33_" class="st0" points="634.6,52.1 603.4,106.6 571.9,52.1 527.7,52.1 603.4,183.3 679,52.1 "/>
<g id="XMLID_1_">
	<path id="XMLID_32_" class="st2" d="M63.5,58.1c6.5,8.5,17.9,11.5,23.3,12.5c2.4,0.4,3.3-0.3,3.5-2.7c0.5-5.5,0.6-17.2-5.9-25.8
		c-6.5-8.5-17.9-11.5-23.3-12.5c-2.3-0.4-3.3,0.3-3.5,2.7C57.1,37.9,56.9,49.6,63.5,58.1"/>
	<path id="XMLID_31_" class="st2" d="M101.5,44.1C93,50.6,90,62,89,67.4c-0.4,2.4,0.3,3.3,2.7,3.5c5.5,0.5,17.2,0.6,25.8-5.9
		C126,58.5,129,47.2,130,41.7c0.4-2.3-0.3-3.3-2.7-3.5C121.8,37.7,110.1,37.6,101.5,44.1"/>
	<path id="XMLID_30_" class="st3" d="M79.6,43.2c-1.4,10.7,4.5,20.8,7.6,25.3c1.4,2,2.5,2.1,4.4,0.6c4.3-3.5,12.6-11.7,14.1-22.4
		S101.2,26,98,21.4c-1.4-1.9-2.5-2.1-4.4-0.6C89.4,24.4,81,32.6,79.6,43.2"/>
	<path id="XMLID_29_" class="st1" d="M141.2,120.3c4.3-31.8-18.1-61.1-49.9-65.4C59.5,50.7,30.3,73,26,104.8
		c-4.3,31.8,26.6,72.7,48.5,75.7C96.4,183.5,137,152.1,141.2,120.3"/>
	<path id="XMLID_28_" class="st4" d="M55.7,148.3c-1.4-0.2-2.4-1.5-2.2-2.9l0.4-2.8c0.2-1.4,1.5-2.4,2.9-2.2
		c1.4,0.2,2.4,1.5,2.2,2.9l-0.4,2.8C58.4,147.5,57.1,148.5,55.7,148.3"/>
	<path id="XMLID_27_" class="st4" d="M67.6,91.1c-1.4-0.2-2.4-1.5-2.2-2.9l0.4-2.8c0.2-1.4,1.5-2.4,2.9-2.2c1.4,0.2,2.4,1.5,2.2,2.9
		l-0.4,2.8C70.3,90.3,69,91.3,67.6,91.1"/>
	<path id="XMLID_26_" class="st4" d="M55.9,78.4c-1.4-0.2-2.4-1.5-2.2-2.9l0.4-2.8c0.2-1.4,1.5-2.4,2.9-2.2c1.4,0.2,2.4,1.5,2.2,2.9
		l-0.4,2.8C58.6,77.6,57.3,78.6,55.9,78.4"/>
	<path id="XMLID_25_" class="st4" d="M101.7,90.7c-1.4-0.2-2.4-1.5-2.2-2.9l0.4-2.8c0.2-1.4,1.5-2.4,2.9-2.2
		c1.4,0.2,2.4,1.5,2.2,2.9l-0.4,2.8C104.5,89.9,103.1,90.9,101.7,90.7"/>
	<path id="XMLID_24_" class="st4" d="M120.5,90.8c-1.4-0.2-2.4-1.5-2.2-2.9l0.4-2.8c0.2-1.4,1.5-2.4,2.9-2.2
		c1.4,0.2,2.4,1.5,2.2,2.9l-0.4,2.8C123.2,90,121.9,91,120.5,90.8"/>
	<path id="XMLID_23_" class="st4" d="M92.7,71.9c-1.4-0.2-2.4-1.5-2.2-2.9l0.4-2.8c0.2-1.4,1.5-2.4,2.9-2.2c1.4,0.2,2.4,1.5,2.2,2.9
		l-0.4,2.8C95.4,71.1,94.1,72.1,92.7,71.9"/>
	<path id="XMLID_22_" class="st4" d="M44.1,135.6c-1.4-0.2-2.4-1.5-2.2-2.9l0.4-2.8c0.2-1.4,1.5-2.4,2.9-2.2
		c1.4,0.2,2.4,1.5,2.2,2.9l-0.4,2.8C46.8,134.8,45.5,135.8,44.1,135.6"/>
	<path id="XMLID_21_" class="st4" d="M96.8,137.9c-1.4-0.2-2.4-1.5-2.2-2.9l0.4-2.8c0.2-1.4,1.5-2.4,2.9-2.2
		c1.4,0.2,2.4,1.5,2.2,2.9l-0.4,2.8C99.5,137.1,98.2,138.1,96.8,137.9"/>
	<path id="XMLID_20_" class="st4" d="M112.4,151c-1.4-0.2-2.4-1.5-2.2-2.9l0.4-2.8c0.2-1.4,1.5-2.4,2.9-2.2c1.4,0.2,2.4,1.5,2.2,2.9
		l-0.4,2.8C115.1,150.2,113.8,151.2,112.4,151"/>
	<path id="XMLID_19_" class="st4" d="M65.2,166.7c-1.4-0.2-2.4-1.5-2.2-2.9l0.4-2.8c0.2-1.4,1.5-2.4,2.9-2.2
		c1.4,0.2,2.4,1.5,2.2,2.9l-0.4,2.8C67.9,165.9,66.6,166.9,65.2,166.7"/>
	<path id="XMLID_18_" class="st4" d="M78.4,151.3c-1.4-0.2-2.4-1.5-2.2-2.9l0.4-2.8c0.2-1.4,1.5-2.4,2.9-2.2
		c1.4,0.2,2.4,1.5,2.2,2.9l-0.4,2.8C81.2,150.5,79.8,151.5,78.4,151.3"/>
	<path id="XMLID_17_" class="st4" d="M89.4,165.2c-1.4-0.2-2.4-1.5-2.2-2.9l0.4-2.8c0.2-1.4,1.5-2.4,2.9-2.2
		c1.4,0.2,2.4,1.5,2.2,2.9l-0.4,2.8C92.1,164.4,90.8,165.4,89.4,165.2"/>
	<path id="XMLID_16_" class="st5" d="M46.8,93c2.8,0.4,4.7,2.9,4.3,5.7c-0.4,2.8-2.9,4.7-5.7,4.3c-2.8-0.4-4.7-2.9-4.3-5.7
		S44.1,92.6,46.8,93"/>
	<path id="XMLID_15_" class="st5" d="M124.3,103.4c2.8,0.4,4.7,2.9,4.3,5.7c-0.4,2.8-2.9,4.7-5.7,4.3c-2.8-0.4-4.7-2.9-4.3-5.7
		C119,105,121.5,103,124.3,103.4"/>
	<path id="XMLID_14_" class="st6" d="M49.2,116.1l-10.7-1.4c-1.4-0.2-2.4-1.5-2.2-2.9c0.2-1.4,1.5-2.4,2.9-2.2l10.7,1.4
		c1.4,0.2,2.4,1.5,2.2,2.9C51.9,115.3,50.6,116.3,49.2,116.1"/>
	<path id="XMLID_13_" class="st6" d="M126.7,126.5l-10.7-1.4c-1.4-0.2-2.4-1.5-2.2-2.9c0.2-1.4,1.5-2.4,2.9-2.2l10.7,1.4
		c1.4,0.2,2.4,1.5,2.2,2.9C129.4,125.7,128.1,126.7,126.7,126.5"/>
	<path id="XMLID_12_" class="st5" d="M76.7,116.2c-4.9-0.7-8.3-5.2-7.7-10.1c0.2-1.4,1.5-2.4,2.9-2.2c1.4,0.2,2.4,1.5,2.2,2.9
		c-0.3,2,1.2,3.9,3.2,4.2c2,0.3,3.9-1.2,4.2-3.2c0.2-1.4,1.5-2.4,2.9-2.2c1.4,0.2,2.4,1.5,2.2,2.9C86.1,113.5,81.6,116.9,76.7,116.2
		"/>
	<path id="XMLID_11_" class="st5" d="M89.3,117.9c-4.9-0.7-8.3-5.2-7.7-10.1c0.2-1.4,1.5-2.4,2.9-2.2c1.4,0.2,2.4,1.5,2.2,2.9
		c-0.3,2,1.2,3.9,3.2,4.2c2,0.3,3.9-1.2,4.2-3.2c0.2-1.4,1.5-2.4,2.9-2.2c1.4,0.2,2.4,1.5,2.2,2.9C98.7,115.1,94.2,118.6,89.3,117.9
		"/>
	<path id="XMLID_41_" class="st7" d="M124.3,103.4c-2.8-0.4-5.3,1.6-5.7,4.3c-0.4,2.8,1.6,5.3,4.3,5.7c2.8,0.4,5.3-1.6,5.7-4.3
		C129,106.3,127.1,103.8,124.3,103.4 M97.1,107.3c-1.4-0.2-2.7,0.8-2.9,2.2c-0.3,2-2.2,3.5-4.2,3.2c-2-0.3-3.5-2.2-3.2-4.2
		c0.2-1.4-0.8-2.7-2.2-2.9c-1.4-0.2-2.7,0.8-2.9,2.2c-0.3,2-2.2,3.5-4.2,3.2c-2-0.3-3.5-2.2-3.2-4.2c0.2-1.4-0.8-2.7-2.2-2.9
		c-1.4-0.2-2.7,0.8-2.9,2.2c-0.7,4.9,2.8,9.4,7.7,10.1c2.5,0.3,4.8-0.4,6.6-1.8c1.4,1.8,3.5,3.1,5.9,3.5c4.9,0.7,9.4-2.8,10.1-7.7
		C99.6,108.8,98.6,107.5,97.1,107.3 M46.8,93c-2.8-0.4-5.3,1.6-5.7,4.3c-0.4,2.8,1.6,5.3,4.3,5.7c2.8,0.4,5.3-1.6,5.7-4.3
		C51.5,95.9,49.6,93.4,46.8,93 M112.8,161.5c-13.3,11.3-28.2,17.8-37.9,16.5c-9.8-1.3-22.5-11.5-32.3-25.9
		c-10.6-15.6-15.8-33.1-14-46.9C32.7,74.8,60.7,53.5,91,57.5c30.3,4.1,51.7,32.1,47.6,62.4C136.8,133.7,127.1,149.2,112.8,161.5
		 M60.2,32.6c0-0.2,0-0.3,0-0.4c0.1,0,0.2,0,0.4,0.1c4,0.7,11.3,2.6,17.2,7c-0.4,1.4-0.6,2.6-0.7,3.6c-0.4,3-0.3,6.1,0.3,9.3
		c-4.4,0.5-8.7,1.4-12.9,2.8C62.2,51.4,59.1,44.1,60.2,32.6 M95.3,22.8c0.1-0.1,0.2-0.2,0.3-0.2c0.1,0.1,0.1,0.2,0.2,0.3
		c7.8,11.2,7.6,20.2,7.2,23.5c-0.3,2.6-1.2,5.2-2.5,7.9c-2.9-0.8-5.8-1.5-8.8-1.9c-3.1-0.4-6.1-0.6-9.2-0.5
		c-0.6-2.9-0.7-5.7-0.4-8.3C82.6,40.3,84.8,31.6,95.3,22.8 M108.2,47.1c0.1-1,0.2-2.2,0.2-3.6c6.9-2.8,14.5-2.7,18.6-2.3
		c0.2,0,0.3,0,0.4,0c0,0.1,0,0.2-0.1,0.4c-2,11.4-6.9,17.6-10,20.4c-3.7-2.4-7.6-4.5-11.8-6.1C106.9,53,107.8,50,108.2,47.1
		 M121.6,65.2c3.9-3.8,8.8-10.8,10.9-22.7c0.1-0.7,0.5-2.9-0.8-4.6c-1.2-1.5-3-1.9-4.2-2c-4.3-0.4-12-0.5-19.5,2.1
		c-0.8-5-3-11.2-7.9-18.2c-0.7-1-1.9-2.4-3.8-2.7c-2.1-0.3-3.8,1.1-4.4,1.6c-6.5,5.4-10.2,10.8-12.3,15.4
		c-6.5-4.5-13.9-6.3-18.1-7.1c-1.2-0.2-3.1-0.4-4.6,0.8c-1.7,1.3-1.9,3.5-2,4.2c-1.1,12,1.8,20,4.5,24.7
		c-18.9,8.2-33.1,25.8-36.1,47.6c-2,15.2,3.4,33.6,14.9,50.5c10.8,15.8,24.5,26.6,35.9,28.1c11.4,1.5,27.5-5.2,42-17.7
		c15.5-13.2,25.6-29.6,27.6-44.8C146.8,98.8,137.6,78.1,121.6,65.2"/>
</g>
</svg>
